<?xml version="1.0" encoding="UTF-8"?>
<svg width="1200" height="800" xmlns="http://www.w3.org/2000/svg">
    <!-- Definitions for arrows -->
    <defs>
        <marker id="arrowhead" markerWidth="10" markerHeight="7" 
                refX="9" refY="3.5" orient="auto">
            <polygon points="0 0, 10 3.5, 0 7" fill="#6c757d"/>
        </marker>
    </defs>

    <!-- Background -->
    <rect width="1200" height="800" fill="#f8f9fa"/>
    
    <!-- User Input Section -->
    <g transform="translate(50,100)">
        <rect x="0" y="0" width="280" height="120" rx="10" fill="#e9ecef" stroke="#495057"/>
        <text x="20" y="40" font-family="Arial" font-size="18" font-weight="bold">User Input</text>
        <text x="20" y="70" font-family="Arial" font-size="16">- Text Input</text>
        <text x="20" y="95" font-family="Arial" font-size="16">- Retrieval Method</text>
    </g>
    
    <!-- Search Button -->
    <g transform="translate(50,250)">
        <rect x="0" y="0" width="120" height="50" rx="5" fill="#007bff" stroke="#0056b3"/>
        <text x="30" y="32" font-family="Arial" font-size="18" fill="white">Search</text>
    </g>
    
    <!-- Main Callback -->
    <g transform="translate(400,100)">
        <rect x="0" y="0" width="450" height="240" rx="10" fill="#e9ecef" stroke="#495057"/>
        <text x="20" y="40" font-family="Arial" font-size="18" font-weight="bold">handle_search_and_result_retrieval</text>
        <text x="20" y="70" font-family="Arial" font-size="16">Inputs:</text>
        <text x="40" y="95" font-family="Arial" font-size="16">- user-input (n_submit)</text>
        <text x="40" y="120" font-family="Arial" font-size="16">- retrieval-result (n_clicks)</text>
        <text x="20" y="150" font-family="Arial" font-size="16">States:</text>
        <text x="40" y="175" font-family="Arial" font-size="16">- user-input (value)</text>
        <text x="40" y="200" font-family="Arial" font-size="16">- retrieval-method (value)</text>
        <text x="20" y="230" font-family="Arial" font-size="16">Outputs:</text>
        <text x="40" y="255" font-family="Arial" font-size="16">- results-panel (children)</text>
        <text x="40" y="280" font-family="Arial" font-size="16">- retrieval-results-list (children)</text>
    </g>
    
    <!-- Graph Callback -->
    <g transform="translate(400,400)">
        <rect x="0" y="0" width="450" height="180" rx="10" fill="#e9ecef" stroke="#495057"/>
        <text x="20" y="40" font-family="Arial" font-size="18" font-weight="bold">handle_graph_node_click</text>
        <text x="20" y="70" font-family="Arial" font-size="16">Inputs:</text>
        <text x="40" y="95" font-family="Arial" font-size="16">- rag-graph (tapNodeData)</text>
        <text x="20" y="125" font-family="Arial" font-size="16">States:</text>
        <text x="40" y="150" font-family="Arial" font-size="16">- retrieval-method (value)</text>
        <text x="40" y="175" font-family="Arial" font-size="16">- graph-elements-store (data)</text>
    </g>
    
    <!-- Results Panel -->
    <g transform="translate(920,100)">
        <rect x="0" y="0" width="250" height="480" rx="10" fill="#e9ecef" stroke="#495057"/>
        <text x="20" y="40" font-family="Arial" font-size="18" font-weight="bold">Results Panel</text>
        <text x="20" y="70" font-family="Arial" font-size="16">- Debug Information</text>
        <text x="20" y="95" font-family="Arial" font-size="16">- Graph Visualization</text>
        <text x="20" y="120" font-family="Arial" font-size="16">- Retrieved Documents</text>
    </g>
    
    <!-- Connections -->
    <g stroke="#6c757d" stroke-width="2" fill="none">
        <!-- User Input to Main Callback -->
        <path d="M 330 150 L 400 150" marker-end="url(#arrowhead)"/>
        <text x="335" y="140" font-family="Arial" font-size="12" fill="#6c757d">Input Query</text>
        
        <!-- Search Button to Main Callback -->
        <path d="M 170 275 L 400 150" marker-end="url(#arrowhead)"/>
        <text x="230" y="230" font-family="Arial" font-size="12" fill="#6c757d">Trigger Search</text>
        
        <!-- Main Callback to Results Panel -->
        <path d="M 850 150 L 920 150" marker-end="url(#arrowhead)"/>
        <text x="865" y="140" font-family="Arial" font-size="12" fill="#6c757d">Update Results</text>
        
        <!-- Graph Callback to Results Panel -->
        <path d="M 850 490 L 885 490 L 885 150" marker-end="url(#arrowhead)"/>
        <text x="855" y="475" font-family="Arial" font-size="12" fill="#6c757d">Update on Click</text>
    </g>

    <!-- Legend -->
    <g transform="translate(50,700)">
        <text x="0" y="0" font-family="Arial" font-size="14" font-weight="bold">Legend:</text>
        <g transform="translate(0,20)">
            <path d="M 0 0 L 40 0" stroke="#6c757d" stroke-width="2" marker-end="url(#arrowhead)"/>
            <text x="50" y="5" font-family="Arial" font-size="12">Data/Event Flow</text>
        </g>
        <rect x="150" y="10" width="20" height="20" fill="#007bff"/>
        <text x="180" y="25" font-family="Arial" font-size="12">Action Trigger</text>
        <rect x="300" y="10" width="20" height="20" fill="#e9ecef" stroke="#495057"/>
        <text x="330" y="25" font-family="Arial" font-size="12">Component/Callback</text>
    </g>
</svg> 